<?xml version="1.0" encoding="UTF-8"?>
<!DOCTYPE svg PUBLIC "-//W3C//DTD SVG 1.1//EN" "http://www.w3.org/Graphics/SVG/1.1/DTD/svg11.dtd">
<!-- Creator: CorelDRAW 2019 (64-Bit) -->
<svg xmlns="http://www.w3.org/2000/svg" xml:space="preserve" width="60px" height="60px" version="1.1" style="shape-rendering:geometricPrecision; text-rendering:geometricPrecision; image-rendering:optimizeQuality; fill-rule:evenodd; clip-rule:evenodd"
viewBox="0 0 20.31 20.31"
 xmlns:xlink="http://www.w3.org/1999/xlink"
 xmlns:xodm="http://www.corel.com/coreldraw/odm/2003">
 <defs>
  <style type="text/css">
   <![CDATA[
    .fil0 {fill:#FEFEFE;fill-rule:nonzero}
   ]]>
  </style>
 </defs>
 <g id="Camada_x0020_1">
  <metadata id="CorelCorpID_0Corel-Layer"/>
  <g id="_1867205008528">
   <path class="fil0" d="M18.96 0l-17.61 0c-0.74,0 -1.35,0.61 -1.35,1.35l0 17.61c0,0.75 0.61,1.35 1.35,1.35l17.61 0c0.75,0 1.35,-0.6 1.35,-1.35l0 -17.61c0,-0.74 -0.6,-1.35 -1.35,-1.35zm-17.61 0.68l17.61 0c0.37,0 0.67,0.3 0.67,0.67l0 1.36 -18.95 0 0 -1.36c0,-0.37 0.3,-0.67 0.67,-0.67zm17.61 18.95l-17.61 0c-0.37,0 -0.67,-0.3 -0.67,-0.67l0 -15.57 18.95 0 0 15.57c0,0.37 -0.3,0.67 -0.67,0.67z"/>
   <path class="fil0" d="M2.03 1.69c0,0.19 -0.15,0.34 -0.34,0.34 -0.18,0 -0.34,-0.15 -0.34,-0.34 0,-0.18 0.16,-0.34 0.34,-0.34 0.19,0 0.34,0.16 0.34,0.34z"/>
   <path class="fil0" d="M3.39 1.69c0,0.19 -0.16,0.34 -0.34,0.34 -0.19,0 -0.34,-0.15 -0.34,-0.34 0,-0.18 0.15,-0.34 0.34,-0.34 0.18,0 0.34,0.16 0.34,0.34z"/>
   <path class="fil0" d="M4.74 1.69c0,0.19 -0.15,0.34 -0.34,0.34 -0.19,0 -0.34,-0.15 -0.34,-0.34 0,-0.18 0.15,-0.34 0.34,-0.34 0.19,0 0.34,0.16 0.34,0.34z"/>
   <path class="fil0" d="M17.94 2.03l0.34 0c0.19,0 0.34,-0.15 0.34,-0.34 0,-0.18 -0.15,-0.34 -0.34,-0.34l-0.34 0c-0.18,0 -0.34,0.16 -0.34,0.34 0,0.19 0.16,0.34 0.34,0.34z"/>
   <path class="fil0" d="M5.42 8.12c0.18,0 0.34,-0.15 0.34,-0.33l0 -1.36 1.01 0c0.19,0 0.34,-0.15 0.34,-0.34 0,-0.18 -0.15,-0.33 -0.34,-0.33l-1.01 0 0 -1.02 1.35 0c0.19,0 0.34,-0.15 0.34,-0.34 0,-0.19 -0.15,-0.34 -0.34,-0.34l-1.69 0c-0.19,0 -0.34,0.15 -0.34,0.34l0 3.39c0,0.18 0.15,0.33 0.34,0.33z"/>
   <path class="fil0" d="M7.66 8.1c0.17,0.07 0.37,-0.02 0.44,-0.19l0.32 -0.8 1.44 0 0.32 0.8c0.07,0.18 0.27,0.26 0.44,0.19 0.17,-0.07 0.26,-0.27 0.19,-0.44l-1.36 -3.39c-0.05,-0.12 -0.17,-0.21 -0.31,-0.21 -0.14,0 -0.26,0.09 -0.31,0.21l-1.36 3.39c-0.03,0.08 -0.03,0.18 0,0.26 0.04,0.08 0.11,0.15 0.19,0.18zm1.48 -2.79l0.45 1.12 -0.9 0 0.45 -1.12z"/>
   <path class="fil0" d="M14.38 7.75l0.28 0.28c0.13,0.12 0.34,0.12 0.47,-0.01 0.13,-0.13 0.13,-0.34 0,-0.47l-0.27 -0.28c0.61,-0.86 0.46,-2.05 -0.35,-2.73 -0.8,-0.68 -2,-0.63 -2.75,0.12 -0.74,0.74 -0.79,1.94 -0.11,2.74 0.68,0.81 1.87,0.96 2.73,0.35zm-1.18 -3.01c0.49,0 0.94,0.26 1.18,0.68 0.24,0.42 0.23,0.94 -0.02,1.36l-0.58 -0.59c-0.13,-0.13 -0.34,-0.12 -0.47,0.01 -0.13,0.13 -0.14,0.34 -0.01,0.47l0.59 0.59c-0.5,0.29 -1.11,0.24 -1.55,-0.13 -0.44,-0.36 -0.61,-0.96 -0.41,-1.5 0.19,-0.54 0.7,-0.89 1.27,-0.89z"/>
   <path class="fil0" d="M14.87 9.14l-6.72 0c-0.58,0 -1.04,0.47 -1.04,1.04l0 0.31 -1.67 0c-0.57,0 -1.04,0.47 -1.04,1.04l0 4.36c0,0.56 0.45,1.02 1.02,1.04l0 1.51c0,0.2 0.11,0.38 0.28,0.46 0.18,0.09 0.39,0.07 0.55,-0.05l2.51 -1.92 3.4 0c0.28,0 0.55,-0.12 0.75,-0.32 1.3,1 1.25,0.99 1.47,0.99 0.14,0 0.27,-0.05 0.36,-0.15 0.1,-0.09 0.16,-0.22 0.16,-0.36l0 -1.52c0.56,-0.01 1.01,-0.47 1.01,-1.04l0 -4.35c0,-0.57 -0.46,-1.04 -1.04,-1.04zm-7.42 7.11c-0.19,0 -0.34,0.15 -0.34,0.34 0,0.18 0.15,0.34 0.34,0.34l0.19 0 -1.55 1.18 0 -1.18c0.19,0 0.34,-0.16 0.34,-0.34 0,-0.19 -0.15,-0.34 -0.34,-0.34l-0.65 0c-0.2,0 -0.36,-0.16 -0.36,-0.36l0 -4.36c0,-0.2 0.16,-0.36 0.36,-0.36l1.67 0 0 3.36c0,0.58 0.46,1.04 1.04,1.04l3.4 0 0.81 0.62c-0.13,0.09 0.24,0.06 -4.91,0.06zm7.78 -1.72c0,0.2 -0.16,0.37 -0.36,0.37l-0.65 0c-0.19,0 -0.34,0.15 -0.34,0.33 0,0.19 0.15,0.34 0.34,0.34l0 1.19 -1.55 -1.19 0.19 0c0.19,0 0.34,-0.15 0.34,-0.34 0,-0.18 -0.15,-0.33 -0.34,-0.33l-4.71 0c-0.2,0 -0.36,-0.17 -0.36,-0.37l0 -4.35c0,-0.2 0.16,-0.36 0.36,-0.36l6.72 0c0.2,0 0.36,0.16 0.36,0.36l0 4.35z"/>
   <path class="fil0" d="M11.85 13.88c0,0.19 -0.15,0.34 -0.34,0.34 -0.19,0 -0.34,-0.15 -0.34,-0.34 0,-0.19 0.15,-0.34 0.34,-0.34 0.19,0 0.34,0.15 0.34,0.34z"/>
   <path class="fil0" d="M10.63 11c-0.09,0.16 -0.03,0.36 0.13,0.46 0.16,0.09 0.36,0.04 0.46,-0.12 0.08,-0.14 0.25,-0.2 0.4,-0.15 0.16,0.06 0.25,0.22 0.22,0.38 -0.03,0.16 -0.17,0.28 -0.33,0.28 -0.19,0 -0.34,0.15 -0.34,0.34l0 0.34c0,0.18 0.15,0.33 0.34,0.33 0.19,0 0.34,-0.15 0.34,-0.33l0 -0.06c0.42,-0.15 0.7,-0.56 0.67,-1.01 -0.02,-0.45 -0.34,-0.83 -0.77,-0.94 -0.44,-0.1 -0.9,0.09 -1.12,0.48z"/>
  </g>
 </g>
</svg>
