<?xml version="1.0" encoding="UTF-8"?>
<!DOCTYPE svg PUBLIC "-//W3C//DTD SVG 1.1//EN" "http://www.w3.org/Graphics/SVG/1.1/DTD/svg11.dtd">
<!-- Creator: CorelDRAW 2019 (64-Bit) -->
<svg xmlns="http://www.w3.org/2000/svg" xml:space="preserve" width="85px" height="85px" version="1.1" style="shape-rendering:geometricPrecision; text-rendering:geometricPrecision; image-rendering:optimizeQuality; fill-rule:evenodd; clip-rule:evenodd"
viewBox="0 0 31.7 31.7"
 xmlns:xlink="http://www.w3.org/1999/xlink"
 xmlns:xodm="http://www.corel.com/coreldraw/odm/2003">
 <defs>
  <style type="text/css">
   <![CDATA[
    .fil0 {fill:#FEFEFE;fill-rule:nonzero}
   ]]>
  </style>
 </defs>
 <g id="Camada_x0020_1">
  <metadata id="CorelCorpID_0Corel-Layer"/>
  <g id="_1867280640640">
   <polygon class="fil0" points="12.15,23.24 19.55,23.24 19.55,22.19 12.15,22.19 "/>
   <polygon class="fil0" points="10.04,23.24 11.09,23.24 11.09,22.19 10.04,22.19 "/>
   <path class="fil0" d="M31.17 2.11l-7.4 0 0 -0.53c0,-0.87 -0.71,-1.58 -1.58,-1.58l-12.68 0c-0.88,0 -1.58,0.71 -1.59,1.58l0 2.12 -7.39 0c-0.29,0 -0.53,0.23 -0.53,0.53l0 6.34c0,0.29 0.24,0.52 0.53,0.52l7.39 0 0 1.06c-1.45,0 -2.64,1.18 -2.64,2.64l0 2.16 1.06 11.07 0 3.15c0,0.29 0.24,0.53 0.53,0.53l11.62 0c0.29,0 0.53,-0.24 0.53,-0.53l0 -3 1.96 -2.81 1.21 0c0.87,-0.01 1.58,-0.71 1.58,-1.59l0 -0.53 0.53 0c0.88,0.01 1.67,-0.54 1.98,-1.36 0.31,-0.83 0.07,-1.76 -0.6,-2.33 0.47,-0.4 0.73,-0.98 0.73,-1.59 0,-0.61 -0.26,-1.19 -0.73,-1.58 0.47,-0.4 0.73,-0.98 0.73,-1.59 0,-0.61 -0.26,-1.19 -0.73,-1.58 0.67,-0.58 0.91,-1.51 0.6,-2.33 -0.31,-0.83 -1.1,-1.37 -1.98,-1.37l-0.53 0 0 -1.06 7.4 0c0.29,0 0.53,-0.23 0.53,-0.53l0 -5.28c0,-0.14 -0.06,-0.27 -0.16,-0.37 -0.1,-0.1 -0.23,-0.16 -0.37,-0.16zm-11.24 -1.05l-0.17 0.65c-0.06,0.24 -0.27,0.4 -0.51,0.4l-6.8 0c-0.25,0 -0.46,-0.16 -0.52,-0.4l-0.16 -0.65 8.16 0zm-18.87 8.98l0 -5.29 9.51 0 0 5.29 -9.51 0zm16.9 20.6l-10.56 0 0 -2.11 10.56 0 0 2.11zm0.25 -3.17l-10.86 0 -1.01 -10.57 0 -2.11c0,-0.87 0.71,-1.58 1.58,-1.58l3.7 0c0.88,0 1.59,0.71 1.59,1.58 0,0.88 -0.71,1.59 -1.59,1.59l-3.17 0c-0.29,0 -0.53,0.23 -0.53,0.52l0 6.87c0.01,0.88 0.71,1.58 1.59,1.59l10.18 0 -1.48 2.11zm4.51 -3.7c0,0.29 -0.24,0.53 -0.53,0.53l-12.68 0c-0.29,0 -0.53,-0.24 -0.53,-0.53l0 -6.34 2.64 0c1.46,0 2.64,-1.18 2.64,-2.64 0,-1.46 -1.18,-2.64 -2.64,-2.64l-2.64 0 0 -1.06 2.11 0c0.3,0 0.53,-0.23 0.53,-0.52l0 -6.34c0,-0.3 -0.23,-0.53 -0.53,-0.53l-2.11 0 0 -2.12c0,-0.29 0.24,-0.52 0.53,-0.52l1.17 0 0.23 0.91c0.18,0.71 0.81,1.2 1.54,1.2l6.8 0c0.73,0 1.36,-0.49 1.54,-1.2l0.22 -0.91 1.18 0c0.29,0 0.53,0.23 0.53,0.52l0 0.53 -1.06 0c-0.29,0 -0.53,0.24 -0.53,0.53l0 5.28c0,0.3 0.24,0.53 0.53,0.53l1.06 0 0 1.06 -0.53 0c-0.88,0 -1.67,0.54 -1.98,1.37 -0.31,0.82 -0.07,1.75 0.59,2.33 -0.46,0.39 -0.73,0.97 -0.73,1.58 0,0.61 0.27,1.19 0.73,1.59 -0.46,0.39 -0.73,0.97 -0.73,1.58 0,0.61 0.27,1.19 0.73,1.59 -0.66,0.57 -0.9,1.5 -0.59,2.33 0.31,0.82 1.1,1.37 1.98,1.36l0.53 0 0 0.53zm1.58 -1.58l-2.11 0c-0.59,0 -1.06,-0.48 -1.06,-1.06 0,-0.58 0.47,-1.06 1.06,-1.06l2.11 0c0.58,0 1.06,0.48 1.06,1.06 0,0.58 -0.48,1.06 -1.06,1.06zm0 -3.17l-2.11 0c-0.59,0 -1.06,-0.47 -1.06,-1.06 0,-0.58 0.47,-1.06 1.06,-1.06l2.11 0c0.58,0 1.06,0.48 1.06,1.06 0,0.59 -0.48,1.06 -1.06,1.06zm0 -3.17l-2.11 0c-0.59,0 -1.06,-0.47 -1.06,-1.06 0,-0.58 0.47,-1.05 1.06,-1.05l2.11 0c0.58,0 1.06,0.47 1.06,1.05 0,0.59 -0.48,1.06 -1.06,1.06zm0 -5.28c0.58,0 1.06,0.47 1.06,1.05 0,0.59 -0.48,1.06 -1.06,1.06l-2.11 0c-0.59,0 -1.06,-0.47 -1.06,-1.06 0,-0.58 0.47,-1.05 1.06,-1.05l2.11 0zm6.34 -3.17l-8.45 0 0 -4.23 8.45 0 0 4.23z"/>
   <polygon class="fil0" points="2.11,6.87 3.17,6.87 3.17,5.81 2.11,5.81 "/>
   <polygon class="fil0" points="4.23,6.87 9.51,6.87 9.51,5.81 4.23,5.81 "/>
   <polygon class="fil0" points="2.11,8.98 9.51,8.98 9.51,7.92 2.11,7.92 "/>
   <polygon class="fil0" points="23.24,5.81 25.36,5.81 25.36,4.75 23.24,4.75 "/>
   <polygon class="fil0" points="26.41,5.81 29.58,5.81 29.58,4.75 26.41,4.75 "/>
  </g>
 </g>
</svg>
