<?xml version="1.0" encoding="UTF-8"?>
<!DOCTYPE svg PUBLIC "-//W3C//DTD SVG 1.1//EN" "http://www.w3.org/Graphics/SVG/1.1/DTD/svg11.dtd">
<!-- Creator: CorelDRAW 2019 (64-Bit) -->
<svg xmlns="http://www.w3.org/2000/svg" xml:space="preserve" width="160px" height="110px" version="1.1" style="shape-rendering:geometricPrecision; text-rendering:geometricPrecision; image-rendering:optimizeQuality; fill-rule:evenodd; clip-rule:evenodd"
viewBox="0 0 30.66 21.14"
 xmlns:xlink="http://www.w3.org/1999/xlink"
 xmlns:xodm="http://www.corel.com/coreldraw/odm/2003">
 <defs>
  <style type="text/css">
   <![CDATA[
    .fil0 {fill:#FEFEFE}
    .fil6 {fill:#FFD887;fill-rule:nonzero}
    .fil7 {fill:#F16A6C;fill-rule:nonzero}
    .fil1 {fill:#D7DFEE;fill-rule:nonzero}
    .fil9 {fill:#C5DD7E;fill-rule:nonzero}
    .fil5 {fill:#B0BBD3;fill-rule:nonzero}
    .fil8 {fill:#A4D9CC;fill-rule:nonzero}
    .fil3 {fill:#989FB4;fill-rule:nonzero}
    .fil2 {fill:#929AAE;fill-rule:nonzero}
    .fil4 {fill:#767A8C;fill-rule:nonzero}
    .fil10 {fill:#4AC7F0;fill-rule:nonzero}
   ]]>
  </style>
 </defs>
 <g id="Camada_x0020_1">
  <metadata id="CorelCorpID_0Corel-Layer"/>
  <g id="_2272783952672">
   <rect class="fil0" x="2.02" y="0.57" width="26.53" height="17.69"/>
   <g>
    <polygon class="fil1" points="5.29,17.44 6.34,17.44 6.34,14.8 5.29,14.8 "/>
    <polygon class="fil1" points="10.04,17.44 11.1,17.44 11.1,12.69 10.04,12.69 "/>
    <polygon class="fil1" points="19.56,17.44 20.61,17.44 20.61,10.57 19.56,10.57 "/>
    <polygon class="fil1" points="24.31,17.44 25.37,17.44 25.37,5.29 24.31,5.29 "/>
    <polygon class="fil1" points="14.8,17.44 15.86,17.44 15.86,7.93 14.8,7.93 "/>
    <path class="fil2" d="M5.81 15.33c-0.2,0 -0.39,-0.12 -0.48,-0.32 -0.12,-0.26 0,-0.58 0.27,-0.69l4.65 -2.07 4.69 -5.2c0.17,-0.2 0.46,-0.24 0.68,-0.09l4.36 2.91 4.45 -5.45c0.19,-0.22 0.52,-0.26 0.75,-0.07 0.22,0.18 0.26,0.52 0.07,0.74l-4.76 5.82c-0.17,0.21 -0.47,0.25 -0.7,0.1l-4.38 -2.92 -4.45 4.95c-0.05,0.05 -0.11,0.1 -0.17,0.13l-4.76 2.11c-0.07,0.03 -0.14,0.05 -0.22,0.05z"/>
    <path class="fil3" d="M29.6 21.14l-28.54 0c-0.59,0 -1.06,-0.47 -1.06,-1.06l0 -0.52c0,-0.3 0.24,-0.53 0.53,-0.53l29.6 0c0.29,0 0.53,0.23 0.53,0.53l0 0.52c0,0.59 -0.48,1.06 -1.06,1.06z"/>
    <path class="fil4" d="M17.12 20.08l-3.58 0c-0.2,0 -0.38,-0.11 -0.47,-0.29l-0.38 -0.76 5.28 0 -0.38 0.76c-0.09,0.18 -0.27,0.29 -0.47,0.29z"/>
    <path class="fil5" d="M28.01 16.91c0,0.3 -0.23,0.53 -0.53,0.53l-24.31 0c-0.29,0 -0.53,-0.23 -0.53,-0.53l0 -14.8c0,-0.29 0.24,-0.52 0.53,-0.52l24.31 0c0.3,0 0.53,0.23 0.53,0.52l0 14.8zm0 -16.91l-25.37 0c-0.87,0 -1.58,0.71 -1.58,1.59l0 17.44 28.54 0 0 -17.44c0,-0.88 -0.71,-1.59 -1.59,-1.59z"/>
    <path class="fil6" d="M15.33 6.34c0.58,0 1.05,0.48 1.05,1.06 0,0.58 -0.47,1.06 -1.05,1.06 -0.59,0 -1.06,-0.48 -1.06,-1.06 0,-0.58 0.47,-1.06 1.06,-1.06z"/>
    <path class="fil7" d="M10.57 11.63c0.58,0 1.06,0.47 1.06,1.06 0,0.58 -0.48,1.05 -1.06,1.05 -0.58,0 -1.06,-0.47 -1.06,-1.05 0,-0.59 0.48,-1.06 1.06,-1.06z"/>
    <path class="fil8" d="M24.84 3.7c0.59,0 1.06,0.47 1.06,1.06 0,0.58 -0.47,1.05 -1.06,1.05 -0.58,0 -1.06,-0.47 -1.06,-1.05 0,-0.59 0.48,-1.06 1.06,-1.06z"/>
    <path class="fil9" d="M20.08 9.51c0.59,0 1.06,0.48 1.06,1.06 0,0.58 -0.47,1.06 -1.06,1.06 -0.58,0 -1.05,-0.48 -1.05,-1.06 0,-0.58 0.47,-1.06 1.05,-1.06z"/>
    <path class="fil10" d="M5.81 13.74c0.59,0 1.06,0.48 1.06,1.06 0,0.58 -0.47,1.06 -1.06,1.06 -0.58,0 -1.05,-0.48 -1.05,-1.06 0,-0.58 0.47,-1.06 1.05,-1.06z"/>
   </g>
  </g>
 </g>
</svg>
