<?xml version="1.0" encoding="UTF-8"?>
<!DOCTYPE svg PUBLIC "-//W3C//DTD SVG 1.1//EN" "http://www.w3.org/Graphics/SVG/1.1/DTD/svg11.dtd">
<!-- Creator: CorelDRAW 2019 (64-Bit) -->
<svg xmlns="http://www.w3.org/2000/svg" xml:space="preserve" width="75px" height="75px" version="1.1" style="shape-rendering:geometricPrecision; text-rendering:geometricPrecision; image-rendering:optimizeQuality; fill-rule:evenodd; clip-rule:evenodd"
viewBox="0 0 27.38 27.38"
 xmlns:xlink="http://www.w3.org/1999/xlink"
 xmlns:xodm="http://www.corel.com/coreldraw/odm/2003">
 <defs>
  <style type="text/css">
   <![CDATA[
    .fil0 {fill:#FEFEFE;fill-rule:nonzero}
   ]]>
  </style>
 </defs>
 <g id="Camada_x0020_1">
  <metadata id="CorelCorpID_0Corel-Layer"/>
  <g id="_1867116807920">
   <path class="fil0" d="M26.27 3.8l-1.01 0c-0.22,0 -0.4,0.18 -0.4,0.4 0,0.22 0.18,0.4 0.4,0.4l1.01 0c0.17,0 0.31,0.13 0.31,0.3l0 2.1 -1.4 0c-0.23,0 -0.41,0.18 -0.41,0.4 0,0.23 0.18,0.41 0.41,0.41l1.4 0 0 11.49 -3.04 0c-0.22,0 -0.4,0.18 -0.4,0.4 0,0.22 0.18,0.4 0.4,0.4l3.04 0 0 2.11c0,0.16 -0.14,0.3 -0.31,0.3l-25.17 0c-0.16,0 -0.3,-0.14 -0.3,-0.3l0 -2.11 20.9 0c0.22,0 0.4,-0.18 0.4,-0.4 0,-0.22 -0.18,-0.4 -0.4,-0.4l-20.9 0 0 -11.49 1.39 0c0.22,0 0.4,-0.18 0.4,-0.41 0,-0.22 -0.18,-0.4 -0.4,-0.4l-1.39 0 0 -2.1c0,-0.17 0.14,-0.3 0.3,-0.3l1.09 0c0.22,0 0.4,-0.18 0.4,-0.4 0,-0.22 -0.18,-0.4 -0.4,-0.4l-1.09 0c-0.6,0 -1.1,0.49 -1.1,1.1l0 17.31c0,0.6 0.5,1.1 1.1,1.1l9.63 0 -0.54 1.66 -1.12 0c-0.77,0 -1.4,0.63 -1.4,1.39 0,0.56 0.46,1.02 1.02,1.02l10 0c0.56,0 1.01,-0.46 1.01,-1.02 0,-0.76 -0.62,-1.39 -1.39,-1.39l-1.12 0 -0.54 -1.66 9.62 0c0.61,0 1.11,-0.5 1.11,-1.1l0 -17.31c0,-0.61 -0.5,-1.1 -1.11,-1.1zm-9.92 21.17l-2.61 0c-0.22,0 -0.4,0.18 -0.4,0.4 0,0.22 0.18,0.4 0.4,0.4l4.57 0c0.33,0 0.59,0.27 0.59,0.59 0,0.12 -0.09,0.22 -0.21,0.22l-10 0c-0.12,0 -0.21,-0.1 -0.21,-0.22 0,-0.32 0.26,-0.59 0.59,-0.59l2.82 0c0.22,0 0.4,-0.18 0.4,-0.4 0,-0.22 -0.18,-0.4 -0.4,-0.4l-0.86 0 0.54 -1.66 4.23 0 0.55 1.66z"/>
   <path class="fil0" d="M3.8 16.9l3.22 0c0.22,0 0.4,-0.18 0.4,-0.41 0,-0.22 -0.18,-0.4 -0.4,-0.4l-2.82 0 0 -15.29 18.98 0 0 15.29 -14.27 0c-0.22,0 -0.4,0.18 -0.4,0.4 0,0.23 0.18,0.41 0.4,0.41l14.67 0c0.22,0 0.4,-0.18 0.4,-0.41l0 -16.09c0,-0.22 -0.18,-0.4 -0.4,-0.4l-19.78 0c-0.22,0 -0.4,0.18 -0.4,0.4l0 16.09c0,0.23 0.18,0.41 0.4,0.41z"/>
   <path class="fil0" d="M7.27 5.04c0.07,0.07 0.17,0.11 0.28,0.11 0.11,0 0.21,-0.04 0.28,-0.11l1.68 -1.68c0.16,-0.16 0.16,-0.41 0,-0.57 -0.16,-0.15 -0.41,-0.15 -0.57,0l-1.39 1.4 -0.55 -0.56c-0.16,-0.16 -0.42,-0.16 -0.57,0 -0.16,0.16 -0.16,0.41 0,0.57l0.84 0.84z"/>
   <path class="fil0" d="M11.9 3.51l8.77 0c0.22,0 0.4,-0.18 0.4,-0.4 0,-0.22 -0.18,-0.4 -0.4,-0.4l-8.77 0c-0.22,0 -0.4,0.18 -0.4,0.4 0,0.22 0.18,0.4 0.4,0.4z"/>
   <path class="fil0" d="M11.9 5.12l7.41 0c0.23,0 0.4,-0.18 0.4,-0.4 0,-0.22 -0.17,-0.4 -0.4,-0.4l-7.41 0c-0.22,0 -0.4,0.18 -0.4,0.4 0,0.22 0.18,0.4 0.4,0.4z"/>
   <path class="fil0" d="M6.43 8.73l0.84 0.84c0.07,0.07 0.17,0.12 0.28,0.12 0.11,0 0.21,-0.05 0.28,-0.12l1.68 -1.68c0.16,-0.15 0.16,-0.41 0,-0.56 -0.16,-0.16 -0.41,-0.16 -0.57,0l-1.39 1.39 -0.55 -0.56c-0.16,-0.15 -0.42,-0.15 -0.57,0 -0.16,0.16 -0.16,0.41 0,0.57z"/>
   <path class="fil0" d="M11.9 8.04l8.77 0c0.22,0 0.4,-0.18 0.4,-0.4 0,-0.22 -0.18,-0.4 -0.4,-0.4l-8.77 0c-0.22,0 -0.4,0.18 -0.4,0.4 0,0.22 0.18,0.4 0.4,0.4z"/>
   <path class="fil0" d="M11.9 9.65l7.41 0c0.23,0 0.4,-0.18 0.4,-0.4 0,-0.22 -0.17,-0.4 -0.4,-0.4l-7.41 0c-0.22,0 -0.4,0.18 -0.4,0.4 0,0.22 0.18,0.4 0.4,0.4z"/>
   <path class="fil0" d="M6.43 13.26l0.84 0.84c0.07,0.08 0.17,0.12 0.28,0.12 0.11,0 0.21,-0.04 0.28,-0.12l1.68 -1.67c0.16,-0.16 0.16,-0.41 0,-0.57 -0.16,-0.16 -0.41,-0.16 -0.57,0l-1.39 1.39 -0.55 -0.55c-0.16,-0.16 -0.42,-0.16 -0.57,0 -0.16,0.15 -0.16,0.41 0,0.56z"/>
   <path class="fil0" d="M11.9 12.58l8.77 0c0.22,0 0.4,-0.18 0.4,-0.4 0,-0.23 -0.18,-0.41 -0.4,-0.41l-8.77 0c-0.22,0 -0.4,0.18 -0.4,0.41 0,0.22 0.18,0.4 0.4,0.4z"/>
   <path class="fil0" d="M11.9 14.19l7.41 0c0.23,0 0.4,-0.18 0.4,-0.4 0,-0.23 -0.17,-0.41 -0.4,-0.41l-7.41 0c-0.22,0 -0.4,0.18 -0.4,0.41 0,0.22 0.18,0.4 0.4,0.4z"/>
  </g>
 </g>
</svg>
