<?xml version="1.0" encoding="UTF-8"?>
<!DOCTYPE svg PUBLIC "-//W3C//DTD SVG 1.1//EN" "http://www.w3.org/Graphics/SVG/1.1/DTD/svg11.dtd">
<!-- Creator: CorelDRAW 2019 (64-Bit) -->
<svg xmlns="http://www.w3.org/2000/svg" xml:space="preserve" width="142px" height="125px" version="1.1" style="shape-rendering:geometricPrecision; text-rendering:geometricPrecision; image-rendering:optimizeQuality; fill-rule:evenodd; clip-rule:evenodd"
viewBox="0 0 142 124.8"
 xmlns:xlink="http://www.w3.org/1999/xlink"
 xmlns:xodm="http://www.corel.com/coreldraw/odm/2003">
 <defs>
  <style type="text/css">
   <![CDATA[
    .fil9 {fill:#FFD887;fill-rule:nonzero}
    .fil7 {fill:#B0BBD3;fill-rule:nonzero}
    .fil8 {fill:#989FB4;fill-rule:nonzero}
    .fil1 {fill:#767A8C;fill-rule:nonzero}
    .fil0 {fill:#595F7A;fill-rule:nonzero}
    .fil2 {fill:#27B2EB;fill-rule:nonzero}
    .fil5 {fill:#A8D3D8;fill-rule:nonzero}
    .fil3 {fill:#CC2929;fill-rule:nonzero}
    .fil4 {fill:#D0E4E7;fill-rule:nonzero}
    .fil6 {fill:#EDF5FF;fill-rule:nonzero}
   ]]>
  </style>
 </defs>
 <g id="Camada_x0020_1">
  <metadata id="CorelCorpID_0Corel-Layer"/>
  <g id="_2272770119584">
   <path class="fil0" d="M112.6 124.8l-4.16 0c-6.88,0 -12.48,-5.59 -12.48,-12.48l0 -8.32c0,-2.3 1.86,-4.16 4.16,-4.16l20.8 0c2.3,0 4.16,1.86 4.16,4.16l0 8.32c0,6.89 -5.6,12.48 -12.48,12.48z"/>
   <path class="fil1" d="M33.56 124.8l-4.16 0c-6.88,0 -12.48,-5.59 -12.48,-12.48l0 -8.32c0,-2.3 1.86,-4.16 4.16,-4.16l20.8 0c2.3,0 4.16,1.86 4.16,4.16l0 8.32c0,6.89 -5.6,12.48 -12.48,12.48z"/>
   <path class="fil2" d="M41.88 0c-4.6,0 -8.32,3.73 -8.32,8.32 0,4.6 3.72,8.32 8.32,8.32l11.87 4.16 8.93 -4.16 8.32 -8.32 -8.32 -8.32 -20.8 0z"/>
   <path class="fil3" d="M100.12 0l-20.8 0 -8.32 8.32 8.32 8.32 9.31 4.16 11.49 -4.16c4.6,0 8.32,-3.72 8.32,-8.32 0,-4.59 -3.72,-8.32 -8.32,-8.32z"/>
   <polygon class="fil4" points="71,0 62.68,0 62.68,20.8 79.32,20.8 79.32,0 "/>
   <polygon class="fil5" points="71,20.8 79.32,20.8 79.32,0 71,0 "/>
   <path class="fil1" d="M119.79 32.4c-2.32,-9.28 -10.62,-15.76 -20.18,-15.76l-57.22 0c-9.56,0 -17.86,6.48 -20.18,15.76l-6.46 25.84 110.5 0 -6.46 -25.84z"/>
   <path class="fil0" d="M119.79 32.4c-2.32,-9.28 -10.62,-15.76 -20.18,-15.76l-28.61 0 0 41.6 55.25 0 -6.46 -25.84z"/>
   <path class="fil6" d="M111.72 34.41c-1.39,-5.56 -6.37,-9.45 -12.11,-9.45l-57.22 0c-5.74,0 -10.72,3.89 -12.11,9.45l-5.96 23.83 93.36 0 -5.96 -23.83z"/>
   <path class="fil4" d="M111.72 34.41c-1.39,-5.56 -6.37,-9.45 -12.11,-9.45l-28.61 0 0 33.28 46.68 0 -5.96 -23.83z"/>
   <path class="fil7" d="M120.92 49.92l-99.84 0c-11.47,0 -21.08,9.33 -21.08,20.8l0 24.96c0,6.88 5.88,12.48 12.76,12.48l116.48 0c6.88,0 12.76,-5.6 12.76,-12.48l0 -24.96c0,-11.47 -9.61,-20.8 -21.08,-20.8z"/>
   <path class="fil8" d="M142 95.68l0 -24.96c0,-11.47 -9.61,-20.8 -21.08,-20.8l-49.92 0 0 58.24 58.24 0c6.88,0 12.76,-5.6 12.76,-12.48z"/>
   <path class="fil1" d="M62.68 74.88l16.64 0c2.3,0 4.16,-1.86 4.16,-4.16 0,-2.3 -1.86,-4.16 -4.16,-4.16l-16.64 0c-2.3,0 -4.16,1.86 -4.16,4.16 0,2.3 1.86,4.16 4.16,4.16z"/>
   <path class="fil1" d="M79.32 83.2l-16.64 0c-2.3,0 -4.16,1.86 -4.16,4.16 0,2.3 1.86,4.16 4.16,4.16l16.64 0c2.3,0 4.16,-1.86 4.16,-4.16 0,-2.3 -1.86,-4.16 -4.16,-4.16z"/>
   <path class="fil0" d="M83.48 70.72c0,-2.3 -1.86,-4.16 -4.16,-4.16l-8.32 0 0 8.32 8.32 0c2.3,0 4.16,-1.86 4.16,-4.16z"/>
   <path class="fil0" d="M83.48 87.36c0,-2.3 -1.86,-4.16 -4.16,-4.16l-8.32 0 0 8.32 8.32 0c2.3,0 4.16,-1.86 4.16,-4.16z"/>
   <path class="fil9" d="M100.12 87.36c-4.58,0 -8.32,-3.73 -8.32,-8.32 0,-4.58 3.74,-8.32 8.32,-8.32l16.64 0c4.59,0 8.32,3.74 8.32,8.32 0,4.59 -3.73,8.32 -8.32,8.32l-16.64 0z"/>
   <path class="fil9" d="M25.24 87.36c-4.59,0 -8.32,-3.73 -8.32,-8.32 0,-4.58 3.73,-8.32 8.32,-8.32l16.64 0c4.59,0 8.32,3.74 8.32,8.32 0,4.59 -3.73,8.32 -8.32,8.32l-16.64 0z"/>
  </g>
 </g>
</svg>
