<?xml version="1.0" encoding="UTF-8"?>
<!DOCTYPE svg PUBLIC "-//W3C//DTD SVG 1.1//EN" "http://www.w3.org/Graphics/SVG/1.1/DTD/svg11.dtd">
<!-- Creator: CorelDRAW 2019 (64-Bit) -->
<svg xmlns="http://www.w3.org/2000/svg" xml:space="preserve" width="114px" height="32px" version="1.1" style="shape-rendering:geometricPrecision; text-rendering:geometricPrecision; image-rendering:optimizeQuality; fill-rule:evenodd; clip-rule:evenodd"
viewBox="0 0 202.48 56.15"
 xmlns:xlink="http://www.w3.org/1999/xlink"
 xmlns:xodm="http://www.corel.com/coreldraw/odm/2003">
 <defs>
  <style type="text/css">
   <![CDATA[
    .fil0 {fill:white}
   ]]>
  </style>
 </defs>
 <g id="Camada_x0020_1">
  <metadata id="CorelCorpID_0Corel-Layer"/>
  <g id="_1866485795392">
   <path class="fil0" d="M2.11 47.37l0 -39.65c0,-4.16 3.17,-5.61 7.36,-5.61l183.89 0c4.48,0 7.02,1.45 7.02,5.96l0 40.36c0,3.33 -2.7,5.61 -5.97,5.61l-185.29 0c-5.11,0 -7.01,-1.5 -7.01,-6.67zm-2.11 -41.4l0 43.51c0,3.99 3.27,6.67 7.37,6.67l188.09 0c3.43,0 7.02,-3.27 7.02,-6.67l0 -43.51c0,-1.46 -1.32,-3.38 -2.19,-4.13 -1.08,-0.92 -2.95,-1.84 -4.83,-1.84l-188.44 0c-3.15,0 -7.02,3.01 -7.02,5.97z"/>
   <path class="fil0" d="M29.48 25.62c0,5.84 0.55,7.96 3.15,12.99 5.47,10.6 10.33,5.2 13.76,5 4.7,-0.27 6.94,5.22 12.67,-2.45 0.98,-1.32 3.25,-4.62 3.4,-6.42 -5.36,-2.84 -6.8,-7.81 -3.94,-12.36 1.21,-1.93 1.99,-1.73 2.89,-3.08 -5.2,-7.77 -11.1,-2.46 -15.09,-2.46 -3.09,0 -2.88,-1.75 -7.02,-1.75 -5.43,0 -9.82,5.09 -9.82,10.53z"/>
   <path class="fil0" d="M82.82 28.77c0.03,1.67 1,3.91 1.4,5.62l-3.51 0c1.36,-2.82 0.84,-4.68 2.11,-5.62zm-6.67 11.94l2.81 0c0.62,-1.29 0.84,-3.05 1.4,-4.21l4.56 0c0.15,1.77 0.91,2.43 1.06,4.21l3.15 0c-0.19,-2.35 -4.34,-12.5 -4.56,-15.09l-3.86 0 -3.46 11.27c-0.41,1.21 -0.99,2.49 -1.1,3.82z"/>
   <path class="fil0" d="M96.15 38.95c-2.5,0 -2.45,-2.75 -2.45,-4.21 0,-2.99 3.39,-3.46 4.63,-1.47 1.27,2.04 0.3,5.68 -2.18,5.68zm-5.26 -6.67l0 12.64 2.81 0 0 -4.92c8.04,5.39 12.06,-10.17 2.8,-10.17 -1.32,0 -2.34,0.85 -3.16,1.4l0 -1.4 -2.8 0c0.09,1.1 0.35,1.24 0.35,2.45z"/>
   <path class="fil0" d="M109.84 38.95c-2.5,0 -2.46,-2.75 -2.46,-4.21 0,-2.99 3.4,-3.46 4.63,-1.47 1.27,2.04 0.31,5.68 -2.17,5.68zm-5.27 -6.67l0 12.64 2.81 0 0 -4.92c8.05,5.39 12.06,-10.17 2.81,-10.17 -1.33,0 -2.34,0.85 -3.16,1.4l0 -1.4 -2.81 0c0.09,1.1 0.35,1.24 0.35,2.45z"/>
   <path class="fil0" d="M121.42 30.18c0,4.36 6.67,3.69 6.67,6.67 0,3.13 -5.69,1.2 -6.32,1.05 -0.33,0.69 -0.51,1.62 -0.7,2.46 2.96,0.69 0.95,0.7 4.91,0.7 5.33,0 6.96,-6.27 1.99,-8.66 -1.81,-0.88 -3.25,-0.82 -3.74,-2.92 1.36,-2.05 3.59,-1.68 5.61,-0.71 0.09,-1.07 0.33,-1.68 0.7,-2.45 -2.74,-1.32 -9.12,-1.47 -9.12,3.86z"/>
   <path class="fil0" d="M145.28 31.93c3.86,0 3.33,7.02 0.35,7.02 -3.92,0 -3.23,-7.02 -0.35,-7.02zm-5.26 3.16c0,8.89 10.88,6.66 10.88,1.41 0,-4.61 -1.1,-6.67 -6.32,-6.67 -2.53,0 -4.56,2.55 -4.56,5.26z"/>
   <path class="fil0" d="M164.93 31.93l1.06 0c1.35,0 1.31,1.19 1.75,2.11l-4.56 0c0.23,-1 0.54,-2.11 1.75,-2.11zm-4.56 3.16c0,7.04 6.69,6.6 9.47,5.27 -0.18,-0.8 -0.27,-0.81 -0.35,-1.76 -2.46,0.36 -6,1.25 -6.31,-2.46 4.67,0 7.37,0.78 7.32,-1.28 -0.16,-7.16 -10.13,-6.49 -10.13,0.23z"/>
   <path class="fil0" d="M133.7 27.37l0 2.46 -1.4 0 0 2.1 1.4 0c0,8.76 -0.36,9.13 5.26,9.13l0 -2.46 -2.1 0 -0.35 -6.67 2.81 0 0 -2.1 -2.81 0 0 -3.16c-0.97,0.22 -1.84,0.48 -2.81,0.7z"/>
   <path class="fil0" d="M45.62 14.04l0 1.75c5.23,-0.12 7.72,-4.54 7.72,-9.47 -3.75,0.87 -7.72,3.3 -7.72,7.72z"/>
   <path class="fil0" d="M153 31.58l0 9.13 2.81 0 0 -5.62c0,-3.88 3.51,-1.31 3.51,-3.51l0 -1.75c-1.72,0 -3,-0.15 -3.51,1.75l-0.35 -1.75 -2.81 0c0.18,0.78 0.35,0.8 0.35,1.75z"/>
   <path class="fil0" d="M80.01 17.9l-1.05 0 0 -8.07c2.32,0 5.26,-0.08 5.26,3.86 0,2.71 -1.5,4.21 -4.21,4.21zm-2.46 1.05c5.99,0 8.07,-0.07 8.07,-6.32 0,-4.53 -5.65,-3.86 -8.07,-3.86l0 10.18z"/>
   <path class="fil0" d="M100.01 17.9c-2.67,0 -1.92,-5.27 -0.35,-5.27 3.55,0 3.02,5.27 0.35,5.27zm-3.16 3.86l1.41 0 0 -3.51c5.44,3.64 7.63,-6.67 2.1,-6.67 -1.93,0 -0.33,0.73 -2.36,0.25 -0.16,-0.04 -0.18,-0.23 -1.15,-0.25l0 10.18z"/>
   <path class="fil0" d="M134.75 12.63c1.22,0 1.52,1.11 1.76,2.11l-3.86 0c0.49,-0.94 0.66,-2.11 2.1,-2.11zm-3.51 2.81c0,4.08 3.73,3.76 6.32,3.16 -1.02,-1.92 0.09,-0.7 -2.46,-0.7 -2.04,0 -1.82,-0.8 -2.45,-2.11l5.26 0c0,-5.28 -4.49,-4.9 -5.79,-2.98 -0.46,0.68 -0.88,1.65 -0.88,2.63z"/>
   <path class="fil0" d="M107.73 12.63c3.7,0 2.9,5.27 0.35,5.27 -2.77,0 -2.23,-5.27 -0.35,-5.27zm-3.16 2.46c0,5.04 7.02,5.61 7.02,-0.35 0,-4.17 -7.02,-4.43 -7.02,0.35z"/>
   <path class="fil0" d="M157.91 15.44c0,2.37 -0.64,3.2 -2.8,1.75 0.39,-1.69 0.77,-1.75 2.8,-1.75zm-3.51 -3.51l0 1.05c1.53,-0.12 3.28,-1.35 3.51,1.41 -5.55,0 -5.26,4.56 -1.75,4.56 1.93,0 0.34,-0.73 2.37,-0.25 0.16,0.04 0.17,0.23 1.14,0.25 -0.88,-1.83 1.4,-9.61 -5.27,-7.02z"/>
   <path class="fil0" d="M113.35 18.95l1.4 0 0 -4.56c0,-1.7 3.16,-2.79 3.16,0.35l0 4.21 1.4 0c0,-4.26 0.75,-7.37 -2.45,-7.37 -1.94,0 -0.34,0.73 -2.37,0.25 -0.16,-0.04 -0.17,-0.23 -1.14,-0.25l0 7.37z"/>
   <path class="fil0" d="M146.33 18.95l1.41 0 0 -4.56c0,-1.7 3.16,-2.79 3.16,0.35l0 4.21 1.4 0c0,-4.26 0.75,-7.37 -2.46,-7.37 -1.93,0 -0.33,0.73 -2.37,0.25 -0.15,-0.04 -0.17,-0.23 -1.14,-0.25l0 7.37z"/>
   <path class="fil0" d="M126.68 18.95l1.76 0c0.16,-1.96 1.88,-4.93 2.45,-7.37 -2.08,0.05 -1.64,0.33 -2.24,2.32 -0.19,0.61 -0.36,1.17 -0.51,1.6l-0.76 1.69c-0.1,-1.28 -0.53,-2.06 -0.91,-3.29 -0.61,-1.99 -0.15,-2.27 -2.24,-2.32 0.12,1.54 0.67,2.32 1.18,3.73 0.51,1.43 0.94,2.22 1.27,3.64z"/>
   <path class="fil0" d="M90.54 13.33c0,3.78 2.88,0.9 3.16,4.22 -1.66,1.38 -2.84,-1.48 -3.51,1.05 5.68,1.32 6.05,-2.58 3.44,-3.8 -1.32,-0.62 -1.54,-0.06 -1.69,-1.82 1.23,-0.69 1.56,-0.29 2.81,0 -0.13,-1.57 -0.04,-1.4 -2.46,-1.4 -0.82,0 -1.75,0.94 -1.75,1.75z"/>
   <polygon class="fil0" points="139.32,18.95 140.72,18.95 140.72,8.42 139.32,8.42 "/>
   <polygon class="fil0" points="87.38,18.95 88.78,18.95 88.78,11.58 87.38,11.58 "/>
   <polygon class="fil0" points="121.42,18.95 122.82,18.95 122.82,11.58 121.42,11.58 "/>
   <path class="fil0" d="M121.42 10.88c1.53,-0.13 2.15,-1.13 2.81,-2.11l-1.76 0c-0.44,0.84 -0.81,1.2 -1.05,2.11z"/>
   <path class="fil0" d="M87.03 9.12c0.32,1.22 0.19,1.08 1.4,1.41 0.45,-0.93 0.32,-0.38 0.35,-1.76 -0.74,0.02 -1.39,-0.06 -1.75,0.35z"/>
  </g>
 </g>
</svg>
